<mxfile host="app.diagrams.net" modified="2022-08-29T12:20:56.367Z" agent="5.0 (Macintosh; Intel Mac OS X 10_15_7) AppleWebKit/537.36 (KHTML, like Gecko) Chrome/104.0.0.0 Safari/537.36" etag="enPKQ9K-VX64GdsY-le6" version="20.2.7" type="github">
  <diagram id="J99qYV9GUG1mLQELv4J7" name="Page-1">
    <mxGraphModel dx="1513" dy="750" grid="1" gridSize="10" guides="1" tooltips="1" connect="1" arrows="1" fold="1" page="1" pageScale="1" pageWidth="827" pageHeight="200" math="0" shadow="0">
      <root>
        <mxCell id="0" />
        <mxCell id="1" parent="0" />
        <mxCell id="0fvrSPFY5udeEb9LSscg-1" value="1940" style="text;html=1;resizable=0;autosize=1;align=center;verticalAlign=middle;points=[];fillColor=none;strokeColor=none;rounded=0;" parent="1" vertex="1">
          <mxGeometry x="109" y="38.75" width="50" height="30" as="geometry" />
        </mxCell>
        <mxCell id="0fvrSPFY5udeEb9LSscg-2" value="1930" style="text;html=1;resizable=0;autosize=1;align=center;verticalAlign=middle;points=[];fillColor=none;strokeColor=none;rounded=0;" parent="1" vertex="1">
          <mxGeometry x="39" y="38.75" width="50" height="30" as="geometry" />
        </mxCell>
        <mxCell id="0fvrSPFY5udeEb9LSscg-3" value="1950" style="text;html=1;resizable=0;autosize=1;align=center;verticalAlign=middle;points=[];fillColor=none;strokeColor=none;rounded=0;" parent="1" vertex="1">
          <mxGeometry x="179" y="38.75" width="50" height="30" as="geometry" />
        </mxCell>
        <mxCell id="0fvrSPFY5udeEb9LSscg-4" value="1960" style="text;html=1;resizable=0;autosize=1;align=center;verticalAlign=middle;points=[];fillColor=none;strokeColor=none;rounded=0;" parent="1" vertex="1">
          <mxGeometry x="249" y="38.75" width="50" height="30" as="geometry" />
        </mxCell>
        <mxCell id="0fvrSPFY5udeEb9LSscg-5" value="1970" style="text;html=1;resizable=0;autosize=1;align=center;verticalAlign=middle;points=[];fillColor=none;strokeColor=none;rounded=0;" parent="1" vertex="1">
          <mxGeometry x="319" y="38.75" width="50" height="30" as="geometry" />
        </mxCell>
        <mxCell id="0fvrSPFY5udeEb9LSscg-6" value="1980" style="text;html=1;resizable=0;autosize=1;align=center;verticalAlign=middle;points=[];fillColor=none;strokeColor=none;rounded=0;" parent="1" vertex="1">
          <mxGeometry x="392.5" y="38.75" width="50" height="30" as="geometry" />
        </mxCell>
        <mxCell id="0fvrSPFY5udeEb9LSscg-7" value="1990" style="text;html=1;resizable=0;autosize=1;align=center;verticalAlign=middle;points=[];fillColor=none;strokeColor=none;rounded=0;" parent="1" vertex="1">
          <mxGeometry x="459" y="38.75" width="50" height="30" as="geometry" />
        </mxCell>
        <mxCell id="0fvrSPFY5udeEb9LSscg-8" value="2000" style="text;html=1;resizable=0;autosize=1;align=center;verticalAlign=middle;points=[];fillColor=none;strokeColor=none;rounded=0;" parent="1" vertex="1">
          <mxGeometry x="529" y="38.75" width="50" height="30" as="geometry" />
        </mxCell>
        <mxCell id="0fvrSPFY5udeEb9LSscg-9" value="2010" style="text;html=1;resizable=0;autosize=1;align=center;verticalAlign=middle;points=[];fillColor=none;strokeColor=none;rounded=0;" parent="1" vertex="1">
          <mxGeometry x="599" y="38.75" width="50" height="30" as="geometry" />
        </mxCell>
        <mxCell id="0fvrSPFY5udeEb9LSscg-10" value="2020" style="text;html=1;resizable=0;autosize=1;align=center;verticalAlign=middle;points=[];fillColor=none;strokeColor=none;rounded=0;" parent="1" vertex="1">
          <mxGeometry x="669" y="38.75" width="50" height="30" as="geometry" />
        </mxCell>
        <mxCell id="0fvrSPFY5udeEb9LSscg-11" value="z" style="ellipse;whiteSpace=wrap;html=1;strokeColor=none;fillColor=#000000;" parent="1" vertex="1">
          <mxGeometry x="54" y="68.75" width="20" height="20" as="geometry" />
        </mxCell>
        <mxCell id="0fvrSPFY5udeEb9LSscg-15" value="z" style="ellipse;whiteSpace=wrap;html=1;strokeColor=none;fillColor=#000000;" parent="1" vertex="1">
          <mxGeometry x="124" y="68.75" width="20" height="20" as="geometry" />
        </mxCell>
        <mxCell id="0fvrSPFY5udeEb9LSscg-16" value="z" style="ellipse;whiteSpace=wrap;html=1;strokeColor=none;fillColor=#000000;" parent="1" vertex="1">
          <mxGeometry x="194" y="68.75" width="20" height="20" as="geometry" />
        </mxCell>
        <mxCell id="0fvrSPFY5udeEb9LSscg-18" value="z" style="ellipse;whiteSpace=wrap;html=1;strokeColor=none;fillColor=#000000;" parent="1" vertex="1">
          <mxGeometry x="264" y="68.75" width="20" height="20" as="geometry" />
        </mxCell>
        <mxCell id="0fvrSPFY5udeEb9LSscg-19" value="z" style="ellipse;whiteSpace=wrap;html=1;strokeColor=none;fillColor=#000000;" parent="1" vertex="1">
          <mxGeometry x="334" y="68.75" width="20" height="20" as="geometry" />
        </mxCell>
        <mxCell id="0fvrSPFY5udeEb9LSscg-20" value="z" style="ellipse;whiteSpace=wrap;html=1;strokeColor=none;fillColor=#000000;" parent="1" vertex="1">
          <mxGeometry x="407.5" y="68.75" width="20" height="20" as="geometry" />
        </mxCell>
        <mxCell id="0fvrSPFY5udeEb9LSscg-21" value="z" style="ellipse;whiteSpace=wrap;html=1;strokeColor=none;fillColor=#000000;" parent="1" vertex="1">
          <mxGeometry x="474" y="68.75" width="20" height="20" as="geometry" />
        </mxCell>
        <mxCell id="0fvrSPFY5udeEb9LSscg-22" value="z" style="ellipse;whiteSpace=wrap;html=1;strokeColor=none;fillColor=#000000;" parent="1" vertex="1">
          <mxGeometry x="544" y="68.75" width="20" height="20" as="geometry" />
        </mxCell>
        <mxCell id="0fvrSPFY5udeEb9LSscg-23" value="z" style="ellipse;whiteSpace=wrap;html=1;strokeColor=none;fillColor=#000000;" parent="1" vertex="1">
          <mxGeometry x="614" y="68.75" width="20" height="20" as="geometry" />
        </mxCell>
        <mxCell id="0fvrSPFY5udeEb9LSscg-24" value="z" style="ellipse;whiteSpace=wrap;html=1;strokeColor=none;fillColor=#000000;" parent="1" vertex="1">
          <mxGeometry x="684" y="68.75" width="20" height="20" as="geometry" />
        </mxCell>
        <mxCell id="0fvrSPFY5udeEb9LSscg-25" value="" style="endArrow=classic;html=1;rounded=0;exitX=1;exitY=0.5;exitDx=0;exitDy=0;" parent="1" source="0fvrSPFY5udeEb9LSscg-11" edge="1">
          <mxGeometry width="50" height="50" relative="1" as="geometry">
            <mxPoint x="419" y="78.75" as="sourcePoint" />
            <mxPoint x="740" y="78.75" as="targetPoint" />
          </mxGeometry>
        </mxCell>
        <mxCell id="0fvrSPFY5udeEb9LSscg-26" value="" style="shape=curlyBracket;whiteSpace=wrap;html=1;rounded=1;flipH=1;fillColor=#000000;rotation=90;" parent="1" vertex="1">
          <mxGeometry x="159" y="11.25" width="15" height="210" as="geometry" />
        </mxCell>
        <mxCell id="0fvrSPFY5udeEb9LSscg-27" value="" style="shape=curlyBracket;whiteSpace=wrap;html=1;rounded=1;flipH=1;fillColor=#000000;rotation=90;" parent="1" vertex="1">
          <mxGeometry x="334" y="51.25" width="20" height="130" as="geometry" />
        </mxCell>
        <mxCell id="0fvrSPFY5udeEb9LSscg-28" value="" style="shape=curlyBracket;whiteSpace=wrap;html=1;rounded=1;flipH=1;fillColor=#000000;rotation=90;" parent="1" vertex="1">
          <mxGeometry x="550.25" y="-30" width="20" height="292.5" as="geometry" />
        </mxCell>
        <mxCell id="0fvrSPFY5udeEb9LSscg-29" value="&lt;span id=&quot;docs-internal-guid-be2b52ee-7fff-5b37-f9bb-d58c138bec75&quot; style=&quot;font-size: 11px;&quot;&gt;&lt;p style=&quot;line-height: 1.2; margin-top: 0pt; margin-bottom: 0pt; font-size: 11px;&quot; dir=&quot;ltr&quot;&gt;&lt;span style=&quot;font-size: 11px; font-family: &amp;quot;Helvetica Neue&amp;quot;, sans-serif; background-color: transparent; font-weight: 700; font-variant-numeric: normal; font-variant-east-asian: normal; vertical-align: baseline;&quot;&gt;Almost impossible to use except&lt;/span&gt;&lt;/p&gt;&lt;p style=&quot;line-height: 1.2; margin-top: 0pt; margin-bottom: 0pt; font-size: 11px;&quot; dir=&quot;ltr&quot;&gt;&lt;span style=&quot;font-size: 11px; font-family: &amp;quot;Helvetica Neue&amp;quot;, sans-serif; background-color: transparent; font-weight: 700; font-variant-numeric: normal; font-variant-east-asian: normal; vertical-align: baseline;&quot;&gt;by very patient geniuses&lt;/span&gt;&lt;/p&gt;&lt;/span&gt;" style="text;html=1;resizable=0;autosize=1;align=center;verticalAlign=middle;points=[];fillColor=none;strokeColor=none;rounded=0;fontSize=11;" parent="1" vertex="1">
          <mxGeometry x="69" y="128.75" width="190" height="40" as="geometry" />
        </mxCell>
        <mxCell id="0fvrSPFY5udeEb9LSscg-32" value="&lt;span id=&quot;docs-internal-guid-be2b52ee-7fff-5b37-f9bb-d58c138bec75&quot; style=&quot;&quot;&gt;&lt;p style=&quot;line-height: 1.2; margin-top: 0pt; margin-bottom: 0pt;&quot; dir=&quot;ltr&quot;&gt;&lt;font face=&quot;Helvetica Neue, sans-serif&quot;&gt;&lt;b&gt;Programmable by highly&lt;/b&gt;&lt;/font&gt;&lt;/p&gt;&lt;p style=&quot;line-height: 1.2; margin-top: 0pt; margin-bottom: 0pt;&quot; dir=&quot;ltr&quot;&gt;&lt;font face=&quot;Helvetica Neue, sans-serif&quot;&gt;&lt;b&gt;trained people only&lt;/b&gt;&lt;/font&gt;&lt;/p&gt;&lt;/span&gt;" style="text;html=1;resizable=0;autosize=1;align=center;verticalAlign=middle;points=[];fillColor=none;strokeColor=none;rounded=0;fontSize=11;" parent="1" vertex="1">
          <mxGeometry x="269" y="128.75" width="150" height="40" as="geometry" />
        </mxCell>
        <mxCell id="0fvrSPFY5udeEb9LSscg-33" value="&lt;span id=&quot;docs-internal-guid-be2b52ee-7fff-5b37-f9bb-d58c138bec75&quot; style=&quot;&quot;&gt;&lt;p style=&quot;line-height: 1.2; margin-top: 0pt; margin-bottom: 0pt;&quot; dir=&quot;ltr&quot;&gt;&lt;font face=&quot;Helvetica Neue, sans-serif&quot;&gt;&lt;b&gt;Usable by just about anyone&lt;/b&gt;&lt;/font&gt;&lt;/p&gt;&lt;/span&gt;" style="text;html=1;resizable=0;autosize=1;align=center;verticalAlign=middle;points=[];fillColor=none;strokeColor=none;rounded=0;fontSize=11;" parent="1" vertex="1">
          <mxGeometry x="475.25" y="133.75" width="170" height="30" as="geometry" />
        </mxCell>
      </root>
    </mxGraphModel>
  </diagram>
</mxfile>
